/* XPM */
static char *doubanfm_0[] = {
/* columns rows colors chars-per-pixel */
"32 32 156 2 ",
"   c #949468681F1F",
".  c #95956A6A1F1F",
"X  c #95956A6A2020",
"o  c #96966B6B2323",
"O  c #98986F6F2A2A",
"+  c #99996F6F2B2B",
"@  c #9A9A6F6F2B2B",
"#  c #9A9A6F6F2F2F",
"$  c #979772722B2B",
"%  c #979772722C2C",
"&  c #989870702A2A",
"*  c #999970702A2A",
"=  c #999970702B2B",
"-  c #999971712C2C",
";  c #9A9A71712D2D",
":  c #9A9A72722C2C",
">  c #9B9B73732D2D",
",  c #9A9A72722E2E",
"<  c #9C9C75752E2E",
"1  c #989874743131",
"2  c #9C9C74743030",
"3  c #9D9D75753030",
"4  c #9D9D75753232",
"5  c #9D9D76763333",
"6  c #9E9E76763333",
"7  c #9E9E77773333",
"8  c #9C9C77773434",
"9  c #9E9E77773434",
"0  c #9C9C79793434",
"q  c #9F9F79793838",
"w  c #9D9D7A7A3838",
"e  c #A1A179793B3B",
"r  c #A1A17B7B3A3A",
"t  c #A2A27D7D3B3B",
"y  c #A3A37F7F3B3B",
"u  c #A0A07C7C3C3C",
"i  c #A2A27D7D3E3E",
"p  c #A4A47C7C3E3E",
"a  c #A4A47F7F3F3F",
"s  c #A4A480804040",
"d  c #A4A480804141",
"f  c #A5A581814444",
"g  c #A7A784844646",
"h  c #A7A785854848",
"j  c #A9A982824848",
"k  c #A9A987874C4C",
"l  c #ABAB87874C4C",
"z  c #AFAF8A8A4949",
"x  c #AFAF8C8C4B4B",
"c  c #A8A889894D4D",
"v  c #B0B08C8C4B4B",
"b  c #B1B18C8C4B4B",
"n  c #B0B08D8D4C4C",
"m  c #B1B18D8D4C4C",
"M  c #B2B28D8D4D4D",
"N  c #B3B38E8E4E4E",
"B  c #B2B28F8F4E4E",
"V  c #B3B38F8F4E4E",
"C  c #B3B38F8F4F4F",
"Z  c #ABAB8D8D5858",
"A  c #B3B38F8F5050",
"S  c #AEAE91915959",
"D  c #B9B996965555",
"F  c #B9B995955656",
"G  c #B9B996965757",
"H  c #BABA98985959",
"J  c #BBBB98985959",
"K  c #BABA99995959",
"L  c #BBBB99995959",
"P  c #BBBB99995A5A",
"I  c #BCBC99995A5A",
"U  c #BCBC9A9A5A5A",
"Y  c #BDBD9A9A5A5A",
"T  c #BDBD9B9B5C5C",
"R  c #BDBD9B9B5D5D",
"E  c #B0B095956262",
"W  c #B6B698986666",
"Q  c #E3E3C7C78D8D",
"!  c #E4E4C8C88E8E",
"~  c #E4E4C9C98E8E",
"^  c #E5E5CACA9090",
"/  c #E6E6CACA9090",
"(  c #E6E6CBCB9191",
")  c #E7E7CBCB9191",
"_  c #D3D3C2C2A4A4",
"`  c #D4D4C3C3A6A6",
"'  c #D5D5C5C5A8A8",
"]  c #D7D7C8C8ADAD",
"[  c #D9D9C8C8ADAD",
"{  c #DADACCCCB3B3",
"}  c #DADACDCDB3B3",
"|  c #DBDBCECEB7B7",
" . c #F4F4DADAA1A1",
".. c #F5F5DADAA1A1",
"X. c #F4F4DBDBA1A1",
"o. c #F5F5DBDBA1A1",
"O. c #F4F4DBDBA2A2",
"+. c #F5F5DBDBA2A2",
"@. c #F4F4DBDBA3A3",
"#. c #F5F5DBDBA3A3",
"$. c #F5F5DCDCA3A3",
"%. c #F5F5DCDCA4A4",
"&. c #F5F5DCDCA5A5",
"*. c #F5F5DDDDA5A5",
"=. c #F6F6DCDCA4A4",
"-. c #F6F6DDDDA4A4",
";. c #F6F6DCDCA5A5",
":. c #F6F6DDDDA5A5",
">. c #F7F7DEDEA5A5",
",. c #F6F6DEDEA6A6",
"<. c #F7F7DEDEA6A6",
"1. c #F7F7DEDEA7A7",
"2. c #F8F8DFDFA7A7",
"3. c #F7F7DFDFA8A8",
"4. c #F5F5DEDEABAB",
"5. c #F6F6DFDFACAC",
"6. c #F6F6DFDFADAD",
"7. c #F9F9E0E0A7A7",
"8. c #F6F6E0E0AFAF",
"9. c #F8F8E0E0A8A8",
"0. c #F9F9E0E0A9A9",
"q. c #FAFAE1E1A8A8",
"w. c #FAFAE1E1A9A9",
"e. c #FBFBE1E1A9A9",
"r. c #F9F9E0E0AAAA",
"t. c #F9F9E1E1AAAA",
"y. c #F9F9E1E1ABAB",
"u. c #FAFAE1E1AAAA",
"i. c #FAFAE1E1ABAB",
"p. c #FAFAE2E2AAAA",
"a. c #FAFAE2E2ABAB",
"s. c #FBFBE2E2ABAB",
"d. c #FBFBE3E3ABAB",
"f. c #FCFCE3E3AAAA",
"g. c #FDFDE4E4ABAB",
"h. c #FCFCE4E4ACAC",
"j. c #FDFDE4E4ACAC",
"k. c #F6F6E0E0B0B0",
"l. c #F6F6E1E1B0B0",
"z. c #F6F6E1E1B1B1",
"x. c #F6F6E2E2B2B2",
"c. c #F7F7E2E2B4B4",
"v. c #F6F6E2E2B5B5",
"b. c #FBFBF5F5E5E5",
"n. c #FCFCF5F5E4E4",
"m. c #FCFCF5F5E6E6",
"M. c #FDFDF6F6E7E7",
"N. c #FCFCF7F7E8E8",
"B. c #FCFCF7F7EAEA",
"V. c #FDFDF7F7EAEA",
"C. c #FDFDF8F8EDED",
"Z. c #FCFCFCFCFDFD",
"A. c #FDFDFEFEFFFF",
"S. c #FEFEFFFFFFFF",
"D. c gray100",
"F. c None",
/* pixels */
"F.F.F.h t < @ # - # # # # # # # # # # # - # # - # - 2 r c F.F.F.",
"F.F.r - 9 C I I U U R U U U U U U U U U U U R I R P n 7 - t F.F.",
"F.s = C ~ 9.t.t.t.t.t.t.t.t.t.t.t.t.t.t.t.t.t.t.t.t.3.~ v O s F.",
"k - A ;.h.;.;.;.$.7.;.;.;.;.;.;.;.;.$.9.$.$.9.;.;.;.;.h.O.C = W ",
"e 7 ) t.t.t.t.t.t.t.t.t.t.t.t.t.t.t.t.t.t.t.t.t.t.t.t.t.t.~ 2 g ",
"> B t.t.. t.. t.. t.. t.. t.. t.X t.. t.. t.. t.. t.. t.h.2.z q ",
"- R d.t.t.t.t.t.t.t.t.t.t.t.t.t.t.t.t.t.t.t.t.t.t.t.t.t.2.2.F 8 ",
"# R t.t.. t.. t.. t.. t.. t.. t.. t.. t.. t.. t.. t.X t.t.t.F 8 ",
"# R t.t.t.t.t.t.t.t.t.t.t.t.t.t.t.t.t.t.t.t.t.t.t.t.t.t.t.t.F 8 ",
"# R t.t.. t.. t.. t.. t.. t.. t.. t.. t.. t.. t.. t.. t.>.2.G 8 ",
"- R t.t.t.t.t.t.t.t.t.t.t.t.t.t.t.t.t.t.t.t.t.t.t.t.t.t.e.t.G 8 ",
"# R t.t.. t.. t.. t.. t.. t.. t.. t.. t.. t.. t.. t.. t.>.t.G 8 ",
"# R d.t.t.t.t.t.t.t.t.t.t.t.t.t.t.t.t.t.t.t.t.t.t.t.t.t.g.2.G 8 ",
"# R e.t.X t.. t.. t.. t.. t.. t.. t.. t.. t.. t.. t.X t.2.t.G 8 ",
"# R e.t.t.t.t.t.t.t.t.t.t.t.t.t.t.t.t.t.t.t.t.t.t.t.t.t.e.2.G 8 ",
"# R t.t.X t.. t.. t.. t.. t.. t.. t.. t.. t.. t.. t.X d.e.t.G 8 ",
"- T p.&.7.9.9.7.;.t.9.;.t.;.t.;.>.7.;.t.;.9.t.;.t.7.9.7.;.t.F 8 ",
"# T r.@.$.@.@.9.$.;.$.@.$.$.;.$.;.;.;.$.;.@.$.$.$.$.@.;.$.t.F 8 ",
"# T p.&.$.;.;.@.$.;.$.;.$.;.$.$.o.$.$.;.@.;.&.O.$.o.;.@.;.t.F 0 ",
"# T p.@.;.$.$.@.;.@.;.$.$.$.$.k.k.$.$.$.;.$.@.k.8.$.o.;.O.t.F 0 ",
"# R 8.;.$.;.@.@.@.;.@.;.O.4.B.D.D.n.4.;.o.4.N.D.D.m.3.o.o.2.G 8 ",
"# R t.;.@.@.9.@.;.@.*.@.;.N.D.] } D.m.o.;.B.D.[ } D.m.$.o.t.G 8 ",
"- T t.$.9.@.;.@.;.$.$.$.v.D.' . X | D.o.v.D.' . X | D.k.k.2.G 8 ",
"# T r.;.@.;.@.;.$.$.$.X.v.D._   X } D.o.v.D._   X } D.k.k.t.G 8 ",
"# R t.;.$.;.@.;.@.9.@.$.;.C.D._ ] A.m.@.;.C.A.` ] A.m.O.o.t.F 8 ",
"# R t.;.;.@.;.@.;.@.@.@.@.8.N.D.D.m.r.;.o.8.B.D.D.m.3.$.;.3.F 8 ",
"> A t.;.@.;.@.;.@.;.@.&.$.@.$.x.k.&.O.@.$.O.$.k.k.$.O.@.;.;.z 0 ",
"t 8 ( t.9.@.;.@.;.@.;.&.$.$.$.$.@.@.;.@.;.$.$.@.$.$.;.&.d.! - g ",
"S = C ;.r.@.@.;.;.@.;.&.@.&.@.&.$.;.@.;.&.&.@.;.O.;.@.;.O.x = E ",
"F.s = C ~ 9.r.p.t.t.r.r.p.r.r.r.t.t.p.r.r.r.t.t.t.t.3.! x O j F.",
"F.F.t - 8 n U U G U U G U U U F U G U U G U U G U U n 7 - q F.F.",
"F.F.F.l r 2 O - # # # # # - # # # # # # # # # # # $ 1 t Z F.F.F."
};
