<svg xmlns="http://www.w3.org/2000/svg" xmlns:xlink="http://www.w3.org/1999/xlink" version="1.1" id="Layer_1" x="0px" y="0px" width="100px" height="100px" viewBox="0 0 100 100" enable-background="new 0 0 100 100" xml:space="preserve">
<path fill-rule="evenodd" clip-rule="evenodd" fill="#000000" d="M0.574,10.056C0.574,4.502,5.078,0,10.632,0h21.139  c5.554,0,10.058,4.502,10.058,10.056v79.887c0,5.555-4.504,10.057-10.058,10.057H10.632c-5.554,0-10.058-4.502-10.058-10.057V10.056  z"/>
<path fill-rule="evenodd" clip-rule="evenodd" fill="#000000" d="M58.175,10.056C58.175,4.502,62.679,0,68.229,0h21.142  c5.554,0,10.055,4.502,10.055,10.056v79.887c0,5.555-4.501,10.057-10.055,10.057H68.229c-5.551,0-10.055-4.502-10.055-10.057V10.056  z"/>
</svg>