<svg xmlns="http://www.w3.org/2000/svg" xmlns:xlink="http://www.w3.org/1999/xlink" version="1.1" id="Layer_1" x="0px" y="0px" width="32px" height="32px" viewBox="0 0 32 32" enable-background="new 0 0 32 32" xml:space="preserve">
<path id="volume_2" d="M4.999,12.054v7.896h4.495l6.729,5.521l0.004-18.943l-6.73,5.526H4.999L4.999,12.054z M18.807,11.146  c-0.395-0.389-1.021-0.389-1.416,0.003C17,11.54,17,12.172,17.393,12.564v-0.002c0.863,0.864,1.396,2.05,1.396,3.366  c0,1.313-0.531,2.496-1.395,3.358C17,19.679,17,20.31,17.393,20.706c0.193,0.195,0.449,0.293,0.707,0.293s0.521-0.098,0.709-0.293  c1.221-1.221,1.979-2.916,1.979-4.775C20.789,14.063,20.027,12.366,18.807,11.146z M21.102,8.852c-0.395-0.391-1.021-0.391-1.414,0  c-0.393,0.391-0.393,1.025,0,1.414c1.451,1.451,2.354,3.447,2.354,5.661c0,2.213-0.895,4.207-2.352,5.66  c-0.396,0.389-0.396,1.021,0,1.413c0.188,0.193,0.451,0.294,0.709,0.294c0.256,0,0.52-0.101,0.707-0.294  c1.811-1.811,2.938-4.315,2.936-7.073C24.033,13.169,22.912,10.659,21.102,8.852z"/>
</svg>