<svg xmlns="http://www.w3.org/2000/svg" xmlns:xlink="http://www.w3.org/1999/xlink" version="1.1" id="Layer_1" x="0px" y="0px" width="32px" height="32px" viewBox="0 0 32 32" enable-background="new 0 0 32 32" xml:space="preserve">
<path id="volume1" d="M4.999,12.054v7.896h4.495l6.729,5.521l0.004-18.943l-6.729,5.526H4.999L4.999,12.054z M18.807,11.146  c-0.395-0.389-1.021-0.389-1.416,0.003C17,11.54,17,12.172,17.393,12.564v-0.002c0.863,0.864,1.396,2.05,1.396,3.366  c0,1.313-0.531,2.496-1.395,3.358C17,19.679,17,20.31,17.393,20.706c0.193,0.195,0.449,0.293,0.707,0.293s0.521-0.098,0.709-0.293  c1.221-1.221,1.979-2.916,1.979-4.775C20.789,14.063,20.027,12.366,18.807,11.146z"/>
</svg>