<svg xmlns="http://www.w3.org/2000/svg" xmlns:xlink="http://www.w3.org/1999/xlink" version="1.1" id="Layer_1" x="0px" y="0px" width="32px" height="32px" viewBox="0 0 32 32" enable-background="new 0 0 32 32" xml:space="preserve">
<path id="volume_3" d="M4.943,12.126v7.896h4.495l6.729,5.521L16.171,6.6l-6.73,5.526H4.943L4.943,12.126z M18.75,11.218  c-0.394-0.389-1.021-0.389-1.416,0.003c-0.389,0.391-0.389,1.023,0.002,1.415v-0.002c0.863,0.864,1.396,2.05,1.396,3.366  c0,1.313-0.531,2.496-1.395,3.358c-0.394,0.392-0.394,1.022-0.002,1.419c0.194,0.195,0.45,0.293,0.707,0.293  c0.258,0,0.521-0.098,0.709-0.293c1.221-1.221,1.979-2.916,1.979-4.775C20.732,14.135,19.971,12.438,18.75,11.218z M21.045,8.924  c-0.394-0.391-1.021-0.391-1.414,0c-0.392,0.391-0.392,1.025,0,1.414c1.451,1.451,2.354,3.447,2.354,5.661  c0,2.212-0.896,4.207-2.353,5.66c-0.396,0.389-0.396,1.021,0,1.413c0.188,0.193,0.451,0.294,0.709,0.294  c0.256,0,0.521-0.101,0.707-0.294c1.812-1.811,2.938-4.315,2.937-7.073C23.978,13.241,22.856,10.731,21.045,8.924z M23.223,6.747  c-0.396-0.391-1.023-0.389-1.412,0.002c-0.393,0.389-0.393,1.023,0.002,1.413h-0.002c2.009,2.009,3.246,4.772,3.246,7.838  c0,3.062-1.237,5.828-3.244,7.837c-0.393,0.392-0.393,1.021,0.002,1.416c0.193,0.188,0.449,0.291,0.706,0.291  c0.256,0,0.513-0.104,0.708-0.293c2.361-2.366,3.831-5.646,3.828-9.251C27.06,12.389,25.59,9.11,23.223,6.747z"/>
</svg>